<?xml version="1.0" encoding="utf-8"?>
<!-- Generator: Adobe Illustrator 24.0.0, SVG Export Plug-In . SVG Version: 6.00 Build 0)  -->
<svg version="1.1" id="Layer_1" xmlns="http://www.w3.org/2000/svg" xmlns:xlink="http://www.w3.org/1999/xlink" x="0px" y="0px"
	 viewBox="0 0 260 260" style="enable-background:new 0 0 260 260;" xml:space="preserve">
<style type="text/css">
	.st0{fill:#FFFFFF;}
	.st1{stroke:#000000;stroke-miterlimit:10;}
</style>
<path class="st0" d="M85,0h90c46.9,0,85,38.1,85,85v90c0,46.9-38.1,85-85,85H85c-46.9,0-85-38.1-85-85V85C0,38.1,38.1,0,85,0z"/>
<title>logo</title>
<g>
	<ellipse cx="51.8" cy="152.1" rx="7.4" ry="10.2"/>
	<ellipse cx="208.2" cy="149" rx="7.4" ry="10.2"/>
	<path d="M105.9,170.3c-1.2-0.7-2.5,0.8-1.5,1.9c4.3,4.9,13.5,11.9,31.2,12.6c22.3,0.9,32.1-8.3,35.9-15c0.6-1.1-0.7-2.3-1.8-1.6
		C160.8,174.2,135.9,187.4,105.9,170.3z"/>
</g>
<path class="st1" d="M260,138.5c-51-19.7-72.3-60-72.3-60c5,13.6,10.3,24.8,14,29.7c1,1.4,0.5,2.5-3,0.3c-26.2-16-33-49.3-33-49.3
	c3.9,23.8,4.5,36.7,4.3,43.6c-0.1,3.1-2.9,2.8-5,0.4c-9.5-11-25.1-55.2-25.1-55.2c7.9,33.8,11.1,40.2,13.3,50.8
	c1.5,7.1,5.6,20.4-12.3,7C101.1,75.9,103.4,29,103.4,29C98.7,98.4,0,114.6,0,114.6V85C0,38.1,38.1,0,85,0h90c46.9,0,85,38.1,85,85
	V138.5z"/>
</svg>
