<?xml version="1.0" encoding="utf-8"?>
<!-- Generator: Adobe Illustrator 24.0.0, SVG Export Plug-In . SVG Version: 6.00 Build 0)  -->
<svg version="1.1" id="Layer_1" xmlns="http://www.w3.org/2000/svg" xmlns:xlink="http://www.w3.org/1999/xlink" x="0px" y="0px"
	 viewBox="0 0 32 32" style="enable-background:new 0 0 32 32;" xml:space="preserve">
<style type="text/css">
	.st0{fill:#363639;}
</style>
<g id="Layer_2_1_">
</g>
<g id="Layer_3">
</g>
<g id="Layer_4">
</g>
<g id="Layer_5">
</g>
<g id="Layer_6">
</g>
<g id="Layer_7">
</g>
<g id="Layer_8">
</g>
<g id="Layer_9">
</g>
<g id="Layer_10">
</g>
<g id="Layer_11">
</g>
<g id="Layer_12">
</g>
<g id="Layer_13">
</g>
<g id="Layer_14">
</g>
<g id="Layer_15">
</g>
<g id="Layer_16">
</g>
<g id="Layer_17">
</g>
<g id="Layer_18">
</g>
<g id="Layer_19">
	<g>
		<g>
			<path class="st0" d="M28,19.9c-1.8,4.9-6.5,8.2-11.7,8.2c-6.9,0-12.4-5.5-12.4-12.3c0-5.7,4-10.6,9.6-11.9c0.2-0.1,0.6,0,0.8,0.2
				c0.2,0.2,0.2,0.6,0.2,0.8c-0.4,1.1-0.6,2.3-0.6,3.5c0,5.9,4.8,10.6,10.8,10.6c0.8,0,1.7-0.1,2.5-0.3c0.2-0.1,0.6,0,0.8,0.2
				C28.1,19.3,28.1,19.5,28,19.9z"/>
		</g>
	</g>
</g>
<g id="Layer_20">
</g>
<g id="Layer_21">
</g>
<g id="Layer_22">
</g>
<g id="Layer_23">
</g>
<g id="Layer_24">
</g>
<g id="Layer_25">
</g>
<g id="Wearher">
</g>
</svg>
