<?xml version="1.0" encoding="utf-8"?>
<!-- Generator: Adobe Illustrator 24.0.0, SVG Export Plug-In . SVG Version: 6.00 Build 0)  -->
<svg version="1.1" id="Capa_1" xmlns="http://www.w3.org/2000/svg" xmlns:xlink="http://www.w3.org/1999/xlink" x="0px" y="0px"
	 viewBox="0 0 22 22" style="enable-background:new 0 0 22 22;" xml:space="preserve">
<style type="text/css">
	.st0{opacity:0.84;}
	.st1{fill:#FFFFFF;}
</style>
<g class="st0">
	<g>
		<path class="st1" d="M4.6,6C5,6.4,5.6,6.4,6,6s0.4-1,0-1.4L4.6,3.2c-0.4-0.4-1-0.4-1.4,0s-0.4,1,0,1.4L4.6,6z"/>
		<path class="st1" d="M21,10h-2c-0.6,0-1,0.4-1,1s0.4,1,1,1h2c0.6,0,1-0.4,1-1C22,10.5,21.6,10,21,10z"/>
		<path class="st1" d="M4,11c0-0.6-0.4-1-1-1H1c-0.6,0-1,0.4-1,1s0.4,1,1,1h2C3.5,12,4,11.6,4,11z"/>
		<path class="st1" d="M11,5.4c-3.1,0-5.6,2.5-5.6,5.6s2.5,5.6,5.6,5.6s5.6-2.5,5.6-5.6S14.1,5.4,11,5.4z"/>
		<path class="st1" d="M4.6,16l-1.4,1.4c-0.4,0.4-0.4,1,0,1.4s1,0.4,1.4,0L6,17.4c0.4-0.4,0.4-1,0-1.4C5.7,15.6,5,15.6,4.6,16z"/>
		<path class="st1" d="M17.4,6l1.4-1.4c0.4-0.4,0.4-1,0-1.4s-1-0.4-1.4,0L16,4.6c-0.4,0.4-0.4,1,0,1.4C16.3,6.4,17,6.4,17.4,6z"/>
		<path class="st1" d="M11,18c-0.6,0-1,0.4-1,1v2c0,0.6,0.4,1,1,1s1-0.4,1-1v-2C12,18.5,11.6,18,11,18z"/>
		<path class="st1" d="M17.4,16c-0.4-0.4-1-0.4-1.4,0s-0.4,1,0,1.4l1.4,1.4c0.4,0.4,1,0.4,1.4,0s0.4-1,0-1.4L17.4,16z"/>
		<path class="st1" d="M11,4c0.6,0,1-0.4,1-1V1c0-0.6-0.4-1-1-1s-1,0.4-1,1v2C10,3.5,10.4,4,11,4z"/>
	</g>
</g>
</svg>
